{
	"patcher" : 	{
		"fileversion" : 1,
		"appversion" : 		{
			"major" : 7,
			"minor" : 0,
			"revision" : 5,
			"architecture" : "x86",
			"modernui" : 1
		}
,
		"rect" : [ 34.0, 76.0, 960.0, 662.0 ],
		"bgcolor" : [ 0.65098, 0.666667, 0.662745, 1.0 ],
		"editing_bgcolor" : [ 0.862745, 0.870588, 0.878431, 1.0 ],
		"bglocked" : 0,
		"openinpresentation" : 0,
		"default_fontsize" : 12.0,
		"default_fontface" : 0,
		"default_fontname" : "Arial",
		"gridonopen" : 1,
		"gridsize" : [ 15.0, 15.0 ],
		"gridsnaponopen" : 1,
		"objectsnaponopen" : 1,
		"statusbarvisible" : 2,
		"toolbarvisible" : 1,
		"lefttoolbarpinned" : 0,
		"toptoolbarpinned" : 0,
		"righttoolbarpinned" : 0,
		"bottomtoolbarpinned" : 0,
		"toolbars_unpinned_last_save" : 8,
		"tallnewobj" : 0,
		"boxanimatetime" : 200,
		"enablehscroll" : 1,
		"enablevscroll" : 1,
		"devicewidth" : 0.0,
		"description" : "",
		"digest" : "",
		"tags" : "",
		"style" : "",
		"subpatcher_template" : "",
		"boxes" : [ 			{
				"box" : 				{
					"id" : "obj-56",
					"maxclass" : "newobj",
					"numinlets" : 1,
					"numoutlets" : 1,
					"outlettype" : [ "" ],
					"patching_rect" : [ 320.0, 188.0, 59.0, 22.0 ],
					"style" : "",
					"text" : "tosymbol"
				}

			}
, 			{
				"box" : 				{
					"fontface" : 1,
					"fontsize" : 12.0,
					"id" : "obj-40",
					"maxclass" : "comment",
					"numinlets" : 1,
					"numoutlets" : 0,
					"patching_rect" : [ 415.0, 207.0, 186.0, 20.0 ],
					"presentation" : 1,
					"presentation_rect" : [ 233.707031, 44.0, 151.0, 20.0 ],
					"style" : "",
					"text" : "Recent Incomming SMS"
				}

			}
, 			{
				"box" : 				{
					"id" : "obj-28",
					"maxclass" : "message",
					"numinlets" : 2,
					"numoutlets" : 1,
					"outlettype" : [ "" ],
					"patching_rect" : [ 345.0, 225.0, 43.0, 22.0 ],
					"style" : "",
					"text" : "set $1"
				}

			}
, 			{
				"box" : 				{
					"id" : "obj-7",
					"maxclass" : "newobj",
					"numinlets" : 1,
					"numoutlets" : 2,
					"outlettype" : [ "", "" ],
					"patching_rect" : [ 320.0, 164.0, 196.0, 22.0 ],
					"style" : "",
					"text" : "OSC-route /GSMIN/SMSRECEIVE"
				}

			}
, 			{
				"box" : 				{
					"id" : "obj-32",
					"maxclass" : "newobj",
					"numinlets" : 1,
					"numoutlets" : 1,
					"outlettype" : [ "" ],
					"patching_rect" : [ 544.0, 346.0, 129.0, 22.0 ],
					"style" : "",
					"text" : "prepend /SETGROUP"
				}

			}
, 			{
				"box" : 				{
					"bgfillcolor_angle" : 270.0,
					"bgfillcolor_autogradient" : 0,
					"bgfillcolor_color" : [ 0.290196, 0.309804, 0.301961, 1.0 ],
					"bgfillcolor_color1" : [ 0.439216, 0.74902, 0.254902, 1.0 ],
					"bgfillcolor_color2" : [ 0.290196, 0.309804, 0.301961, 1.0 ],
					"bgfillcolor_proportion" : 0.39,
					"bgfillcolor_type" : "gradient",
					"color" : [ 0.952941, 0.564706, 0.098039, 1.0 ],
					"fontface" : 1,
					"fontsize" : 14.0,
					"id" : "obj-17",
					"items" : [ "GROUP_1", ",", "GROUP_2", ",", "GROUP_3", ",", "GROUP_4", ",", "GROUP_5" ],
					"maxclass" : "umenu",
					"numinlets" : 1,
					"numoutlets" : 3,
					"outlettype" : [ "int", "", "" ],
					"parameter_enable" : 0,
					"patching_rect" : [ 544.0, 308.0, 109.0, 25.0 ],
					"presentation" : 1,
					"presentation_rect" : [ 392.621216, 49.5, 101.5, 25.0 ],
					"style" : ""
				}

			}
, 			{
				"box" : 				{
					"fontface" : 1,
					"id" : "obj-54",
					"linecount" : 2,
					"maxclass" : "comment",
					"numinlets" : 1,
					"numoutlets" : 0,
					"patching_rect" : [ 103.0, 111.0, 152.0, 34.0 ],
					"presentation" : 1,
					"presentation_linecount" : 2,
					"presentation_rect" : [ 341.5, 8.0, 119.0, 34.0 ],
					"style" : "",
					"text" : "Print All Broadcast Messages:"
				}

			}
, 			{
				"box" : 				{
					"id" : "obj-53",
					"maxclass" : "newobj",
					"numinlets" : 1,
					"numoutlets" : 0,
					"patching_rect" : [ 175.310608, 207.0, 90.0, 22.0 ],
					"style" : "",
					"text" : "print broadcast"
				}

			}
, 			{
				"box" : 				{
					"bgcolor" : [ 0.279696, 0.304029, 0.26257, 1.0 ],
					"checkedcolor" : [ 0.439216, 0.74902, 0.254902, 1.0 ],
					"id" : "obj-52",
					"maxclass" : "toggle",
					"numinlets" : 1,
					"numoutlets" : 1,
					"outlettype" : [ "int" ],
					"parameter_enable" : 0,
					"patching_rect" : [ 175.310608, 131.0, 24.0, 24.0 ],
					"presentation" : 1,
					"presentation_rect" : [ 456.121216, 6.0, 38.0, 38.0 ],
					"style" : ""
				}

			}
, 			{
				"box" : 				{
					"id" : "obj-48",
					"maxclass" : "newobj",
					"numinlets" : 2,
					"numoutlets" : 1,
					"outlettype" : [ "" ],
					"patching_rect" : [ 175.310608, 171.0, 37.0, 22.0 ],
					"style" : "",
					"text" : "gate"
				}

			}
, 			{
				"box" : 				{
					"color" : [ 0.439216, 0.74902, 0.254902, 1.0 ],
					"id" : "obj-47",
					"maxclass" : "newobj",
					"numinlets" : 0,
					"numoutlets" : 1,
					"outlettype" : [ "" ],
					"patching_rect" : [ 203.810608, 131.0, 100.0, 22.0 ],
					"style" : "",
					"text" : "r broadcast"
				}

			}
, 			{
				"box" : 				{
					"id" : "obj-46",
					"maxclass" : "newobj",
					"numinlets" : 1,
					"numoutlets" : 1,
					"outlettype" : [ "int" ],
					"patching_rect" : [ 794.0, 285.0, 24.0, 22.0 ],
					"style" : "",
					"text" : "t 2"
				}

			}
, 			{
				"box" : 				{
					"id" : "obj-45",
					"maxclass" : "newobj",
					"numinlets" : 1,
					"numoutlets" : 1,
					"outlettype" : [ "int" ],
					"patching_rect" : [ 738.0, 279.0, 24.0, 22.0 ],
					"style" : "",
					"text" : "t 1"
				}

			}
, 			{
				"box" : 				{
					"id" : "obj-44",
					"maxclass" : "newobj",
					"numinlets" : 2,
					"numoutlets" : 2,
					"outlettype" : [ "", "" ],
					"patching_rect" : [ 711.925293, 348.0, 44.0, 22.0 ],
					"style" : "",
					"text" : "gate 2"
				}

			}
, 			{
				"box" : 				{
					"id" : "obj-41",
					"maxclass" : "newobj",
					"numinlets" : 2,
					"numoutlets" : 2,
					"outlettype" : [ "", "" ],
					"patching_rect" : [ 809.475098, 237.0, 68.0, 22.0 ],
					"style" : "",
					"text" : "route bang"
				}

			}
, 			{
				"box" : 				{
					"id" : "obj-38",
					"maxclass" : "newobj",
					"numinlets" : 1,
					"numoutlets" : 1,
					"outlettype" : [ "" ],
					"patching_rect" : [ 809.475098, 326.0, 74.0, 22.0 ],
					"style" : "",
					"text" : "prepend set"
				}

			}
, 			{
				"box" : 				{
					"id" : "obj-37",
					"maxclass" : "newobj",
					"numinlets" : 1,
					"numoutlets" : 1,
					"outlettype" : [ "" ],
					"patching_rect" : [ 784.0, 378.0, 51.0, 22.0 ],
					"style" : "",
					"text" : "append"
				}

			}
, 			{
				"box" : 				{
					"id" : "obj-36",
					"maxclass" : "newobj",
					"numinlets" : 1,
					"numoutlets" : 1,
					"outlettype" : [ "" ],
					"patching_rect" : [ 784.0, 412.0, 101.0, 22.0 ],
					"style" : "",
					"text" : "prepend /EVENT"
				}

			}
, 			{
				"box" : 				{
					"color" : [ 0.439216, 0.74902, 0.254902, 1.0 ],
					"id" : "obj-30",
					"maxclass" : "newobj",
					"numinlets" : 1,
					"numoutlets" : 0,
					"patching_rect" : [ 568.975098, 432.0, 73.0, 22.0 ],
					"style" : "",
					"text" : "s broadcast"
				}

			}
, 			{
				"box" : 				{
					"fontface" : 1,
					"id" : "obj-26",
					"maxclass" : "comment",
					"numinlets" : 1,
					"numoutlets" : 0,
					"patching_rect" : [ 617.475098, 64.0, 152.0, 20.0 ],
					"presentation" : 1,
					"presentation_rect" : [ 10.0, 44.0, 152.0, 20.0 ],
					"style" : "",
					"text" : "Custom EVENT:"
				}

			}
, 			{
				"box" : 				{
					"id" : "obj-25",
					"maxclass" : "newobj",
					"numinlets" : 2,
					"numoutlets" : 2,
					"outlettype" : [ "", "" ],
					"patching_rect" : [ 809.475098, 205.0, 61.0, 22.0 ],
					"style" : "",
					"text" : "route text"
				}

			}
, 			{
				"box" : 				{
					"id" : "obj-21",
					"linecount" : 3,
					"maxclass" : "message",
					"numinlets" : 2,
					"numoutlets" : 1,
					"outlettype" : [ "" ],
					"patching_rect" : [ 809.475098, 143.0, 50.0, 50.0 ],
					"style" : "",
					"text" : "text GROUP_1"
				}

			}
, 			{
				"box" : 				{
					"autoscroll" : 0,
					"bordercolor" : [ 0.439216, 0.74902, 0.254902, 1.0 ],
					"id" : "obj-22",
					"keymode" : 1,
					"lines" : 1,
					"maxclass" : "textedit",
					"numinlets" : 1,
					"numoutlets" : 4,
					"outlettype" : [ "", "int", "", "" ],
					"parameter_enable" : 0,
					"patching_rect" : [ 795.475098, 94.0, 100.0, 24.0 ],
					"presentation" : 1,
					"presentation_rect" : [ 107.707031, 62.0, 92.0, 22.0 ],
					"style" : "",
					"tabmode" : 0,
					"text" : "GROUP_1",
					"wordwrap" : 0
				}

			}
, 			{
				"box" : 				{
					"id" : "obj-24",
					"maxclass" : "newobj",
					"numinlets" : 2,
					"numoutlets" : 1,
					"outlettype" : [ "bang" ],
					"patching_rect" : [ 704.425293, 130.70105, 49.0, 22.0 ],
					"style" : "",
					"text" : "delay 1"
				}

			}
, 			{
				"box" : 				{
					"id" : "obj-23",
					"linecount" : 3,
					"maxclass" : "message",
					"numinlets" : 2,
					"numoutlets" : 1,
					"outlettype" : [ "" ],
					"patching_rect" : [ 683.475098, 181.0, 50.0, 50.0 ],
					"style" : "",
					"text" : "text Eventname"
				}

			}
, 			{
				"box" : 				{
					"id" : "obj-20",
					"maxclass" : "button",
					"numinlets" : 1,
					"numoutlets" : 1,
					"outlettype" : [ "bang" ],
					"outlinecolor" : [ 0.439216, 0.74902, 0.254902, 1.0 ],
					"patching_rect" : [ 729.0, 95.0, 24.0, 24.0 ],
					"presentation" : 1,
					"presentation_rect" : [ 205.621216, 62.0, 22.0, 22.0 ],
					"style" : "default"
				}

			}
, 			{
				"box" : 				{
					"id" : "obj-18",
					"maxclass" : "newobj",
					"numinlets" : 2,
					"numoutlets" : 2,
					"outlettype" : [ "", "" ],
					"patching_rect" : [ 683.475098, 239.0, 61.0, 22.0 ],
					"style" : "",
					"text" : "route text"
				}

			}
, 			{
				"box" : 				{
					"autoscroll" : 0,
					"bordercolor" : [ 0.439216, 0.74902, 0.254902, 1.0 ],
					"id" : "obj-1",
					"keymode" : 1,
					"lines" : 1,
					"maxclass" : "textedit",
					"numinlets" : 1,
					"numoutlets" : 4,
					"outlettype" : [ "", "int", "", "" ],
					"parameter_enable" : 0,
					"patching_rect" : [ 617.475098, 94.0, 100.0, 24.0 ],
					"presentation" : 1,
					"presentation_rect" : [ 10.0, 62.0, 93.0, 22.0 ],
					"style" : "",
					"tabmode" : 0,
					"text" : "Eventname",
					"wordwrap" : 0
				}

			}
, 			{
				"box" : 				{
					"bgmode" : 1,
					"border" : 0,
					"clickthrough" : 0,
					"enablehscroll" : 0,
					"enablevscroll" : 0,
					"id" : "obj-14",
					"lockeddragscroll" : 0,
					"maxclass" : "bpatcher",
					"name" : "TimeHandler.maxpat",
					"numinlets" : 0,
					"numoutlets" : 0,
					"offset" : [ 0.0, 0.0 ],
					"patching_rect" : [ 298.0, 267.0, 128.0, 128.0 ],
					"presentation" : 1,
					"presentation_rect" : [ 503.0, 55.0, 684.0, 223.0 ],
					"viewvisibility" : 1
				}

			}
, 			{
				"box" : 				{
					"id" : "obj-308",
					"maxclass" : "newobj",
					"numinlets" : 1,
					"numoutlets" : 0,
					"patching_rect" : [ 7.0, 101.0, 73.0, 22.0 ],
					"style" : "",
					"text" : "s datafolder"
				}

			}
, 			{
				"box" : 				{
					"bgcolor" : [ 0.862745, 0.870588, 0.878431, 1.0 ],
					"bgmode" : 2,
					"border" : 0,
					"clickthrough" : 0,
					"embed" : 1,
					"enablehscroll" : 0,
					"enablevscroll" : 0,
					"id" : "obj-281",
					"lockeddragscroll" : 0,
					"maxclass" : "bpatcher",
					"numinlets" : 0,
					"numoutlets" : 1,
					"offset" : [ 0.0, 0.0 ],
					"outlettype" : [ "" ],
					"patcher" : 					{
						"fileversion" : 1,
						"appversion" : 						{
							"major" : 7,
							"minor" : 0,
							"revision" : 5,
							"architecture" : "x86",
							"modernui" : 1
						}
,
						"rect" : [ 537.0, 82.0, 139.0, 25.0 ],
						"bgcolor" : [ 0.862745, 0.870588, 0.878431, 0.0 ],
						"bglocked" : 0,
						"openinpresentation" : 1,
						"default_fontsize" : 12.0,
						"default_fontface" : 0,
						"default_fontname" : "Arial",
						"gridonopen" : 1,
						"gridsize" : [ 15.0, 15.0 ],
						"gridsnaponopen" : 1,
						"objectsnaponopen" : 1,
						"statusbarvisible" : 2,
						"toolbarvisible" : 1,
						"lefttoolbarpinned" : 0,
						"toptoolbarpinned" : 0,
						"righttoolbarpinned" : 0,
						"bottomtoolbarpinned" : 0,
						"toolbars_unpinned_last_save" : 0,
						"tallnewobj" : 0,
						"boxanimatetime" : 200,
						"enablehscroll" : 1,
						"enablevscroll" : 1,
						"devicewidth" : 0.0,
						"description" : "",
						"digest" : "",
						"tags" : "",
						"style" : "",
						"subpatcher_template" : "",
						"boxes" : [ 							{
								"box" : 								{
									"id" : "obj-6",
									"maxclass" : "newobj",
									"numinlets" : 2,
									"numoutlets" : 2,
									"outlettype" : [ "", "" ],
									"patching_rect" : [ 197.0, 222.0, 57.0, 22.0 ],
									"style" : "",
									"text" : "zl.ecils 1"
								}

							}
, 							{
								"box" : 								{
									"id" : "obj-8",
									"maxclass" : "newobj",
									"numinlets" : 1,
									"numoutlets" : 1,
									"outlettype" : [ "" ],
									"patching_rect" : [ 197.0, 257.0, 74.0, 22.0 ],
									"style" : "",
									"text" : "prepend set"
								}

							}
, 							{
								"box" : 								{
									"fontface" : 1,
									"fontsize" : 12.0,
									"id" : "obj-7",
									"maxclass" : "comment",
									"numinlets" : 1,
									"numoutlets" : 0,
									"patching_rect" : [ 197.0, 287.0, 518.0, 20.0 ],
									"presentation" : 1,
									"presentation_rect" : [ 26.0, 3.0, 122.0, 20.0 ],
									"style" : "",
									"text" : "Drop Table Folder"
								}

							}
, 							{
								"box" : 								{
									"id" : "obj-4",
									"maxclass" : "newobj",
									"numinlets" : 1,
									"numoutlets" : 1,
									"outlettype" : [ "" ],
									"patching_rect" : [ 197.0, 190.0, 145.0, 22.0 ],
									"style" : "",
									"text" : "fromsymbol @separator /"
								}

							}
, 							{
								"box" : 								{
									"id" : "obj-5",
									"maxclass" : "button",
									"numinlets" : 1,
									"numoutlets" : 1,
									"outlettype" : [ "bang" ],
									"patching_rect" : [ 25.0, 145.5, 21.5, 21.5 ],
									"presentation" : 1,
									"presentation_rect" : [ 2.5, 3.0, 20.0, 20.0 ],
									"style" : ""
								}

							}
, 							{
								"box" : 								{
									"fontname" : "Arial",
									"fontsize" : 12.0,
									"id" : "obj-3",
									"maxclass" : "newobj",
									"numinlets" : 1,
									"numoutlets" : 1,
									"outlettype" : [ "" ],
									"patching_rect" : [ 123.0, 112.0, 91.0, 22.0 ],
									"style" : "",
									"text" : "loadmess clear"
								}

							}
, 							{
								"box" : 								{
									"comment" : "",
									"id" : "obj-2",
									"maxclass" : "outlet",
									"numinlets" : 1,
									"numoutlets" : 0,
									"patching_rect" : [ 53.0, 262.0, 25.0, 25.0 ],
									"style" : ""
								}

							}
, 							{
								"box" : 								{
									"fontname" : "Arial",
									"fontsize" : 12.0,
									"id" : "obj-1",
									"maxclass" : "newobj",
									"numinlets" : 1,
									"numoutlets" : 2,
									"outlettype" : [ "bang", "" ],
									"patching_rect" : [ 53.0, 112.0, 33.0, 22.0 ],
									"style" : "",
									"text" : "t b s"
								}

							}
, 							{
								"box" : 								{
									"fontname" : "Arial",
									"fontsize" : 13.0,
									"id" : "obj-9",
									"maxclass" : "newobj",
									"numinlets" : 1,
									"numoutlets" : 1,
									"outlettype" : [ "" ],
									"patching_rect" : [ 53.0, 82.0, 80.0, 23.0 ],
									"style" : "",
									"text" : "prepend set"
								}

							}
, 							{
								"box" : 								{
									"fontname" : "Arial",
									"fontsize" : 13.0,
									"id" : "obj-11",
									"maxclass" : "newobj",
									"numinlets" : 2,
									"numoutlets" : 2,
									"outlettype" : [ "", "" ],
									"patching_rect" : [ 53.0, 188.0, 66.0, 23.0 ],
									"style" : "",
									"text" : "route text"
								}

							}
, 							{
								"box" : 								{
									"border" : 0.0,
									"id" : "obj-10",
									"maxclass" : "dropfile",
									"numinlets" : 1,
									"numoutlets" : 2,
									"outlettype" : [ "", "" ],
									"patching_rect" : [ 53.0, 43.0, 271.0, 22.0 ],
									"presentation" : 1,
									"presentation_rect" : [ 26.0, 1.0, 122.0, 25.0 ],
									"rounded" : 0.0,
									"types" : [ "fold" ]
								}

							}
, 							{
								"box" : 								{
									"border" : 1.0,
									"fontface" : 0,
									"fontname" : "Arial",
									"fontsize" : 13.0,
									"id" : "obj-12",
									"linecount" : 2,
									"maxclass" : "textedit",
									"numinlets" : 1,
									"numoutlets" : 4,
									"outlettype" : [ "", "int", "", "" ],
									"parameter_enable" : 0,
									"patching_rect" : [ 53.0, 148.0, 427.0, 19.0 ],
									"rounded" : 6.0,
									"style" : "",
									"text" : "\"C:/Users/Lasse/Code/MaxMsp/GSM Adventure Designer 0_2/Level_0_Tables/\""
								}

							}
 ],
						"lines" : [ 							{
								"patchline" : 								{
									"destination" : [ "obj-12", 0 ],
									"disabled" : 0,
									"hidden" : 0,
									"source" : [ "obj-1", 1 ]
								}

							}
, 							{
								"patchline" : 								{
									"destination" : [ "obj-12", 0 ],
									"disabled" : 0,
									"hidden" : 0,
									"source" : [ "obj-1", 0 ]
								}

							}
, 							{
								"patchline" : 								{
									"destination" : [ "obj-4", 0 ],
									"disabled" : 0,
									"hidden" : 0,
									"source" : [ "obj-10", 0 ]
								}

							}
, 							{
								"patchline" : 								{
									"destination" : [ "obj-9", 0 ],
									"disabled" : 0,
									"hidden" : 0,
									"source" : [ "obj-10", 0 ]
								}

							}
, 							{
								"patchline" : 								{
									"destination" : [ "obj-2", 0 ],
									"disabled" : 0,
									"hidden" : 0,
									"source" : [ "obj-11", 0 ]
								}

							}
, 							{
								"patchline" : 								{
									"destination" : [ "obj-11", 0 ],
									"disabled" : 0,
									"hidden" : 0,
									"midpoints" : [ 62.5, 182.0, 62.5, 182.0 ],
									"source" : [ "obj-12", 0 ]
								}

							}
, 							{
								"patchline" : 								{
									"destination" : [ "obj-12", 0 ],
									"disabled" : 0,
									"hidden" : 0,
									"source" : [ "obj-3", 0 ]
								}

							}
, 							{
								"patchline" : 								{
									"destination" : [ "obj-6", 0 ],
									"disabled" : 0,
									"hidden" : 0,
									"source" : [ "obj-4", 0 ]
								}

							}
, 							{
								"patchline" : 								{
									"destination" : [ "obj-12", 0 ],
									"disabled" : 0,
									"hidden" : 0,
									"source" : [ "obj-5", 0 ]
								}

							}
, 							{
								"patchline" : 								{
									"destination" : [ "obj-8", 0 ],
									"disabled" : 0,
									"hidden" : 0,
									"source" : [ "obj-6", 1 ]
								}

							}
, 							{
								"patchline" : 								{
									"destination" : [ "obj-7", 0 ],
									"disabled" : 0,
									"hidden" : 0,
									"source" : [ "obj-8", 0 ]
								}

							}
, 							{
								"patchline" : 								{
									"destination" : [ "obj-1", 0 ],
									"disabled" : 0,
									"hidden" : 0,
									"source" : [ "obj-9", 0 ]
								}

							}
 ]
					}
,
					"patching_rect" : [ 7.0, 64.0, 135.621216, 26.0 ],
					"presentation" : 1,
					"presentation_rect" : [ 503.0, 6.0, 139.0, 25.0 ],
					"viewvisibility" : 1
				}

			}
, 			{
				"box" : 				{
					"fontface" : 1,
					"fontsize" : 24.0,
					"id" : "obj-2",
					"maxclass" : "comment",
					"numinlets" : 1,
					"numoutlets" : 0,
					"patching_rect" : [ 7.0, 8.0, 309.0, 34.0 ],
					"presentation" : 1,
					"presentation_rect" : [ 10.0, 8.0, 309.0, 34.0 ],
					"style" : "",
					"text" : "GSM Adventure Designer"
				}

			}
, 			{
				"box" : 				{
					"bgmode" : 1,
					"border" : 0,
					"clickthrough" : 0,
					"enablehscroll" : 0,
					"enablevscroll" : 0,
					"id" : "obj-10",
					"lockeddragscroll" : 0,
					"maxclass" : "bpatcher",
					"name" : "GSMSerial.maxpat",
					"numinlets" : 0,
					"numoutlets" : 0,
					"offset" : [ 0.0, 0.0 ],
					"patching_rect" : [ 11.0, 267.0, 128.0, 128.0 ],
					"presentation" : 1,
					"presentation_rect" : [ 6.0, 89.0, 493.0, 189.0 ],
					"viewvisibility" : 1
				}

			}
, 			{
				"box" : 				{
					"bgmode" : 1,
					"border" : 0,
					"clickthrough" : 0,
					"enablehscroll" : 0,
					"enablevscroll" : 0,
					"id" : "obj-11",
					"lockeddragscroll" : 0,
					"maxclass" : "bpatcher",
					"name" : "PlayerStorage.maxpat",
					"numinlets" : 0,
					"numoutlets" : 0,
					"offset" : [ 0.0, 0.0 ],
					"patching_rect" : [ 153.0, 267.0, 128.0, 128.0 ],
					"presentation" : 1,
					"presentation_rect" : [ 6.0, 580.0, 473.0, 288.0 ],
					"viewvisibility" : 1
				}

			}
, 			{
				"box" : 				{
					"bgmode" : 1,
					"border" : 0,
					"clickthrough" : 0,
					"enablehscroll" : 0,
					"enablevscroll" : 0,
					"id" : "obj-8",
					"lockeddragscroll" : 0,
					"maxclass" : "bpatcher",
					"name" : "CallHandler.maxpat",
					"numinlets" : 0,
					"numoutlets" : 0,
					"offset" : [ 0.0, 0.0 ],
					"patching_rect" : [ 7.0, 409.0, 128.0, 128.0 ],
					"presentation" : 1,
					"presentation_rect" : [ 441.0, 283.0, 401.621216, 292.0 ],
					"viewvisibility" : 1
				}

			}
, 			{
				"box" : 				{
					"bgmode" : 1,
					"border" : 0,
					"clickthrough" : 0,
					"enablehscroll" : 0,
					"enablevscroll" : 0,
					"id" : "obj-13",
					"lockeddragscroll" : 0,
					"maxclass" : "bpatcher",
					"name" : "SMSStorage.maxpat",
					"numinlets" : 0,
					"numoutlets" : 0,
					"offset" : [ 0.0, 0.0 ],
					"patching_rect" : [ 298.0, 555.0, 128.0, 128.0 ],
					"presentation" : 1,
					"presentation_rect" : [ 6.0, 283.0, 428.0, 292.0 ],
					"viewvisibility" : 1
				}

			}
, 			{
				"box" : 				{
					"bgmode" : 1,
					"border" : 0,
					"clickthrough" : 0,
					"enablehscroll" : 0,
					"enablevscroll" : 0,
					"id" : "obj-12",
					"lockeddragscroll" : 0,
					"maxclass" : "bpatcher",
					"name" : "SMSFilter.maxpat",
					"numinlets" : 1,
					"numoutlets" : 1,
					"offset" : [ 0.0, 0.0 ],
					"outlettype" : [ "" ],
					"patching_rect" : [ 153.0, 555.0, 128.0, 128.0 ],
					"presentation" : 1,
					"presentation_rect" : [ 849.0, 283.0, 247.0, 271.0 ],
					"viewvisibility" : 1
				}

			}
, 			{
				"box" : 				{
					"bgmode" : 1,
					"border" : 0,
					"clickthrough" : 0,
					"enablehscroll" : 0,
					"enablevscroll" : 0,
					"id" : "obj-9",
					"lockeddragscroll" : 0,
					"maxclass" : "bpatcher",
					"name" : "ChoiceHandler.maxpat",
					"numinlets" : 1,
					"numoutlets" : 0,
					"offset" : [ 0.0, 0.0 ],
					"patching_rect" : [ 7.0, 555.0, 128.0, 128.0 ],
					"presentation" : 1,
					"presentation_rect" : [ 483.0, 580.0, 627.0, 268.0 ],
					"viewvisibility" : 1
				}

			}
, 			{
				"box" : 				{
					"angle" : 270.0,
					"bgcolor" : [ 0.862745, 0.870588, 0.878431, 1.0 ],
					"id" : "obj-61",
					"maxclass" : "panel",
					"mode" : 0,
					"numinlets" : 1,
					"numoutlets" : 0,
					"patching_rect" : [ 415.0, 226.0, 215.0, 22.0 ],
					"presentation" : 1,
					"presentation_rect" : [ 233.707031, 44.0, 151.0, 36.0 ],
					"proportion" : 0.39,
					"style" : ""
				}

			}
 ],
		"lines" : [ 			{
				"patchline" : 				{
					"destination" : [ "obj-23", 1 ],
					"disabled" : 0,
					"hidden" : 0,
					"source" : [ "obj-1", 0 ]
				}

			}
, 			{
				"patchline" : 				{
					"destination" : [ "obj-9", 0 ],
					"disabled" : 0,
					"hidden" : 0,
					"source" : [ "obj-12", 0 ]
				}

			}
, 			{
				"patchline" : 				{
					"destination" : [ "obj-32", 0 ],
					"disabled" : 0,
					"hidden" : 0,
					"source" : [ "obj-17", 0 ]
				}

			}
, 			{
				"patchline" : 				{
					"destination" : [ "obj-44", 1 ],
					"disabled" : 0,
					"hidden" : 0,
					"source" : [ "obj-18", 0 ]
				}

			}
, 			{
				"patchline" : 				{
					"destination" : [ "obj-24", 0 ],
					"disabled" : 0,
					"hidden" : 0,
					"source" : [ "obj-20", 0 ]
				}

			}
, 			{
				"patchline" : 				{
					"destination" : [ "obj-25", 0 ],
					"disabled" : 0,
					"hidden" : 0,
					"source" : [ "obj-21", 0 ]
				}

			}
, 			{
				"patchline" : 				{
					"destination" : [ "obj-21", 1 ],
					"disabled" : 0,
					"hidden" : 0,
					"source" : [ "obj-22", 0 ]
				}

			}
, 			{
				"patchline" : 				{
					"destination" : [ "obj-18", 0 ],
					"disabled" : 0,
					"hidden" : 0,
					"source" : [ "obj-23", 0 ]
				}

			}
, 			{
				"patchline" : 				{
					"destination" : [ "obj-21", 0 ],
					"disabled" : 0,
					"hidden" : 0,
					"source" : [ "obj-24", 0 ]
				}

			}
, 			{
				"patchline" : 				{
					"destination" : [ "obj-23", 0 ],
					"disabled" : 0,
					"hidden" : 0,
					"source" : [ "obj-24", 0 ]
				}

			}
, 			{
				"patchline" : 				{
					"destination" : [ "obj-41", 0 ],
					"disabled" : 0,
					"hidden" : 0,
					"source" : [ "obj-25", 0 ]
				}

			}
, 			{
				"patchline" : 				{
					"destination" : [ "obj-40", 0 ],
					"disabled" : 0,
					"hidden" : 0,
					"source" : [ "obj-28", 0 ]
				}

			}
, 			{
				"patchline" : 				{
					"destination" : [ "obj-308", 0 ],
					"disabled" : 0,
					"hidden" : 0,
					"source" : [ "obj-281", 0 ]
				}

			}
, 			{
				"patchline" : 				{
					"destination" : [ "obj-30", 0 ],
					"disabled" : 0,
					"hidden" : 0,
					"source" : [ "obj-32", 0 ]
				}

			}
, 			{
				"patchline" : 				{
					"destination" : [ "obj-30", 0 ],
					"disabled" : 0,
					"hidden" : 0,
					"source" : [ "obj-36", 0 ]
				}

			}
, 			{
				"patchline" : 				{
					"destination" : [ "obj-36", 0 ],
					"disabled" : 0,
					"hidden" : 0,
					"source" : [ "obj-37", 0 ]
				}

			}
, 			{
				"patchline" : 				{
					"destination" : [ "obj-37", 0 ],
					"disabled" : 0,
					"hidden" : 0,
					"source" : [ "obj-38", 0 ]
				}

			}
, 			{
				"patchline" : 				{
					"destination" : [ "obj-38", 0 ],
					"disabled" : 0,
					"hidden" : 0,
					"source" : [ "obj-41", 1 ]
				}

			}
, 			{
				"patchline" : 				{
					"destination" : [ "obj-45", 0 ],
					"disabled" : 0,
					"hidden" : 0,
					"source" : [ "obj-41", 0 ]
				}

			}
, 			{
				"patchline" : 				{
					"destination" : [ "obj-46", 0 ],
					"disabled" : 0,
					"hidden" : 0,
					"source" : [ "obj-41", 1 ]
				}

			}
, 			{
				"patchline" : 				{
					"destination" : [ "obj-36", 0 ],
					"disabled" : 0,
					"hidden" : 0,
					"source" : [ "obj-44", 0 ]
				}

			}
, 			{
				"patchline" : 				{
					"destination" : [ "obj-37", 0 ],
					"disabled" : 0,
					"hidden" : 0,
					"source" : [ "obj-44", 1 ]
				}

			}
, 			{
				"patchline" : 				{
					"destination" : [ "obj-44", 0 ],
					"disabled" : 0,
					"hidden" : 0,
					"source" : [ "obj-45", 0 ]
				}

			}
, 			{
				"patchline" : 				{
					"destination" : [ "obj-44", 0 ],
					"disabled" : 0,
					"hidden" : 0,
					"source" : [ "obj-46", 0 ]
				}

			}
, 			{
				"patchline" : 				{
					"destination" : [ "obj-48", 1 ],
					"disabled" : 0,
					"hidden" : 0,
					"source" : [ "obj-47", 0 ]
				}

			}
, 			{
				"patchline" : 				{
					"destination" : [ "obj-7", 0 ],
					"disabled" : 0,
					"hidden" : 0,
					"source" : [ "obj-47", 0 ]
				}

			}
, 			{
				"patchline" : 				{
					"destination" : [ "obj-53", 0 ],
					"disabled" : 0,
					"hidden" : 0,
					"source" : [ "obj-48", 0 ]
				}

			}
, 			{
				"patchline" : 				{
					"destination" : [ "obj-48", 0 ],
					"disabled" : 0,
					"hidden" : 0,
					"source" : [ "obj-52", 0 ]
				}

			}
, 			{
				"patchline" : 				{
					"destination" : [ "obj-28", 0 ],
					"disabled" : 0,
					"hidden" : 0,
					"source" : [ "obj-56", 0 ]
				}

			}
, 			{
				"patchline" : 				{
					"destination" : [ "obj-56", 0 ],
					"disabled" : 0,
					"hidden" : 0,
					"source" : [ "obj-7", 0 ]
				}

			}
 ],
		"parameters" : 		{
			"obj-8::obj-18" : [ "live.gain~", "live.gain~", 0 ]
		}
,
		"dependency_cache" : [ 			{
				"name" : "ChoiceHandler.maxpat",
				"bootpath" : "C:/Users/Lasse/Code/MaxMsp/GSM Adventure Designer 0_2",
				"type" : "JSON",
				"implicit" : 1
			}
, 			{
				"name" : "GSM_Choices.txt",
				"bootpath" : "C:/Users/Lasse/Code/MaxMsp/GSM Adventure Designer 0_2/Level_0_Tables",
				"type" : "TEXT",
				"implicit" : 1
			}
, 			{
				"name" : "SMSFilter.maxpat",
				"bootpath" : "C:/Users/Lasse/Code/MaxMsp/GSM Adventure Designer 0_2",
				"type" : "JSON",
				"implicit" : 1
			}
, 			{
				"name" : "GSM_Synonyms.txt",
				"bootpath" : "C:/Users/Lasse/Code/MaxMsp/GSM Adventure Designer 0_2/Level_0_Tables",
				"type" : "TEXT",
				"implicit" : 1
			}
, 			{
				"name" : "SMSStorage.maxpat",
				"bootpath" : "C:/Users/Lasse/Code/MaxMsp/GSM Adventure Designer 0_2",
				"type" : "JSON",
				"implicit" : 1
			}
, 			{
				"name" : "GSM_SMS.txt",
				"bootpath" : "C:/Users/Lasse/Code/MaxMsp/GSM Adventure Designer 0_2/Level_0_Tables",
				"type" : "TEXT",
				"implicit" : 1
			}
, 			{
				"name" : "CallHandler.maxpat",
				"bootpath" : "C:/Users/Lasse/Code/MaxMsp/GSM Adventure Designer 0_2",
				"type" : "JSON",
				"implicit" : 1
			}
, 			{
				"name" : "GSM_Calls.txt",
				"bootpath" : "C:/Users/Lasse/Code/MaxMsp/GSM Adventure Designer 0_2/Level_0_Tables",
				"type" : "TEXT",
				"implicit" : 1
			}
, 			{
				"name" : "PlayerStorage.maxpat",
				"bootpath" : "C:/Users/Lasse/Code/MaxMsp/GSM Adventure Designer 0_2",
				"type" : "JSON",
				"implicit" : 1
			}
, 			{
				"name" : "GSM_Numbers.txt",
				"bootpath" : "C:/Users/Lasse/Code/MaxMsp/GSM Adventure Designer 0_2/Level_0_Tables",
				"type" : "TEXT",
				"implicit" : 1
			}
, 			{
				"name" : "GSMSerial.maxpat",
				"bootpath" : "C:/Users/Lasse/Code/MaxMsp/GSM Adventure Designer 0_2",
				"type" : "JSON",
				"implicit" : 1
			}
, 			{
				"name" : "MachinaMessenger.maxpat",
				"bootpath" : "C:/Users/Lasse/Code/MaxMsp/GSM Adventure Designer 0_2",
				"type" : "JSON",
				"implicit" : 1
			}
, 			{
				"name" : "TimeHandler.maxpat",
				"bootpath" : "C:/Users/Lasse/Code/MaxMsp/GSM Adventure Designer 0_2",
				"type" : "JSON",
				"implicit" : 1
			}
, 			{
				"name" : "GSM_Timecues.txt",
				"bootpath" : "C:/Users/Lasse/Code/MaxMsp/GSM Adventure Designer 0_2/Level_0_Tables",
				"type" : "TEXT",
				"implicit" : 1
			}
, 			{
				"name" : "OSC-route.mxe",
				"type" : "iLaF"
			}
, 			{
				"name" : "omsinfo.mxe",
				"type" : "iLaF"
			}
 ],
		"embedsnapshot" : 0
	}

}
